<svg width="31" height="31" viewBox="0 0 31 31" fill="none" xmlns="http://www.w3.org/2000/svg">
<path fill-rule="evenodd" clip-rule="evenodd" d="M31 15.5C31 24.0604 24.0604 31 15.5 31C6.93959 31 0 24.0604 0 15.5C0 6.93959 6.93959 0 15.5 0C24.0604 0 31 6.93959 31 15.5ZM22.2071 8.79289C22.5976 9.18342 22.5976 9.81658 22.2071 10.2071L16.9142 15.5L22.2071 20.7929C22.5976 21.1834 22.5976 21.8166 22.2071 22.2071C21.8166 22.5976 21.1834 22.5976 20.7929 22.2071L15.5 16.9142L10.2071 22.2071C9.81658 22.5976 9.18342 22.5976 8.79289 22.2071C8.40237 21.8166 8.40237 21.1834 8.79289 20.7929L14.0858 15.5L8.79289 10.2071C8.40237 9.81658 8.40237 9.18342 8.79289 8.79289C9.18342 8.40237 9.81658 8.40237 10.2071 8.79289L15.5 14.0858L20.7929 8.79289C21.1834 8.40237 21.8166 8.40237 22.2071 8.79289Z" fill="#FF0000"/>
</svg>
