<svg width="31" height="31" viewBox="0 0 31 31" fill="none" xmlns="http://www.w3.org/2000/svg">
<path fill-rule="evenodd" clip-rule="evenodd" d="M15.5 31C24.0604 31 31 24.0604 31 15.5C31 6.93959 24.0604 0 15.5 0C6.93959 0 0 6.93959 0 15.5C0 24.0604 6.93959 31 15.5 31ZM23.7795 10.1264C24.1255 9.69588 24.0569 9.06644 23.6264 8.72049C23.1959 8.37455 22.5664 8.4431 22.2205 8.87361L13.2082 20.0889L8.63155 16.361C8.20334 16.0122 7.57346 16.0766 7.22466 16.5048C6.87587 16.933 6.94025 17.5629 7.36845 17.9117L11.9451 21.6396C12.8055 22.3405 14.0721 22.2068 14.7672 21.3417L23.7795 10.1264Z" fill="#71BF2A"/>
</svg>
