<svg width="32" height="31" viewBox="0 0 32 31" fill="none" xmlns="http://www.w3.org/2000/svg">
<path fill-rule="evenodd" clip-rule="evenodd" d="M31.5 15.5C31.5 24.0604 24.5604 31 16 31C7.43959 31 0.5 24.0604 0.5 15.5C0.5 6.93959 7.43959 0 16 0C24.5604 0 31.5 6.93959 31.5 15.5ZM25.6334 9.22604C26.0608 9.57577 26.1238 10.2058 25.7741 10.6332L17.4004 20.8677C16.7064 21.716 15.4589 21.8477 14.6031 21.163L12.5213 19.4976L11.381 20.8913C10.7023 21.7208 9.49047 21.8679 8.63309 21.2248L5.4 18.8C4.95817 18.4686 4.86863 17.8418 5.2 17.4C5.53137 16.9582 6.15817 16.8686 6.6 17.2L9.83309 19.6248L10.9595 18.2481L10.3754 17.7809C9.94417 17.4359 9.87424 16.8066 10.2193 16.3753C10.5643 15.944 11.1936 15.8741 11.6248 16.2191L12.226 16.7001L18.226 9.36677C18.5758 8.93932 19.2058 8.87632 19.6332 9.22605C20.0607 9.57577 20.1237 10.2058 19.774 10.6332L13.7879 17.9496L15.8525 19.6013L24.2262 9.36676C24.5759 8.93932 25.2059 8.87632 25.6334 9.22604Z" fill="#71BF2A"/>
</svg>
